HIERARCHY
ROOT Hips
{
	OFFSET 0.000000 0.000000 0.000000
	CHANNELS 6 Xposition Yposition Zposition Zrotation Yrotation Xrotation 
	JOINT LHipJoint
	{
		OFFSET 0.000000 0.000000 0.000000
		CHANNELS 3 Zrotation Yrotation Xrotation
		JOINT LeftUpLeg
		{
			OFFSET 1.363060 -1.794630 0.839290
			CHANNELS 3 Zrotation Yrotation Xrotation
			JOINT LeftLeg
			{
				OFFSET 2.448110 -6.726130 0.000000
				CHANNELS 3 Zrotation Yrotation Xrotation
				JOINT LeftFoot
				{
					OFFSET 2.562200 -7.039590 0.000000
					CHANNELS 3 Zrotation Yrotation Xrotation
					JOINT LeftToeBase
					{
						OFFSET 0.157640 -0.433110 2.322550
						CHANNELS 3 Zrotation Yrotation Xrotation
						End Site
						{
							OFFSET 0.000000 0.000000 0.000000
						}
					}
				}
			}
		}
	}
	JOINT RHipJoint
	{
		OFFSET 0.000000 0.000000 0.000000
		CHANNELS 3 Zrotation Yrotation Xrotation
		JOINT RightUpLeg
		{
			OFFSET -1.305520 -1.794630 0.839290
			CHANNELS 3 Zrotation Yrotation Xrotation
			JOINT RightLeg
			{
				OFFSET -2.542530 -6.985550 0.000000
				CHANNELS 3 Zrotation Yrotation Xrotation
				JOINT RightFoot
				{
					OFFSET -2.568260 -7.056230 0.000000
					CHANNELS 3 Zrotation Yrotation Xrotation
					JOINT RightToeBase
					{
						OFFSET -0.164730 -0.452590 2.363150
						CHANNELS 3 Zrotation Yrotation Xrotation
						End Site
						{
							OFFSET 0.000000 0.000000 0.000000
						}
					}
				}
			}
		}
	}
}
MOTION
Frames: 14
Frame Time: 0.008333
4.003234 16.790612 -4.670650 -179.766764 30.453791 -169.713193 -10.460348 2.549269 1.928252 -14.859379 -13.469070 12.295668 -2.557574 0.824016 15.388853 -0.637732 -8.600060 -5.668123 0.004600 0.000000 -28.671500 7.384291 -0.219039 4.182250 0.771511 15.061117 -31.536928 2.744052 -0.082535 7.991927 1.292762 8.255941 8.332075 1.761600 0.000000 -38.263200
4.090695 16.812223 -4.795044 -179.483726 29.986611 -169.554392 -10.643773 2.658230 1.926559 -14.241105 -13.181883 11.859237 -2.404476 0.994482 16.678801 -0.649761 -8.692371 -4.399217 -0.142199 0.000000 -33.404800 7.309360 -0.348128 4.197376 1.177798 15.187417 -31.331006 2.722788 -0.169209 8.634022 1.241001 7.846093 8.655499 1.686400 0.000000 -37.644700
4.178011 16.835369 -4.917221 -179.222266 29.532720 -169.428626 -10.829038 2.774346 1.900678 -13.577410 -12.716626 11.269875 -2.242777 1.169963 18.132503 -0.664141 -8.940364 -3.030777 -0.316600 -0.000000 -38.066400 7.247781 -0.467662 4.202335 1.607505 15.233036 -31.078137 2.708924 -0.245264 9.260512 1.192669 7.480938 8.773794 1.597700 0.000000 -36.997300
4.265174 16.859864 -5.036883 -178.975542 29.082128 -169.328961 -11.019189 2.897663 1.850096 -12.848238 -12.054428 10.505922 -2.069790 1.349026 19.762627 -0.679144 -9.380321 -1.533833 -0.537500 -0.000000 -42.647701 7.199190 -0.577971 4.200270 2.055131 15.209147 -30.765999 2.704331 -0.307686 9.840267 1.147817 7.155511 8.693486 1.498200 -0.000000 -36.282300
4.352471 16.885537 -5.153644 -178.750157 28.625147 -169.253243 -11.210976 3.025294 1.779203 -12.061805 -11.212167 9.561981 -1.886746 1.527334 21.577653 -0.689302 -10.012639 0.064237 -0.818900 0.000000 -46.497100 7.166280 -0.678049 4.192295 2.507581 15.113996 -30.392850 2.709252 -0.354783 10.349949 1.107540 6.876005 8.433994 1.394500 -0.000000 -35.510501
4.439452 16.912168 -5.267739 -178.521098 28.150952 -169.180828 -11.413965 3.155380 1.689225 -11.181531 -10.177708 8.416217 -1.686507 1.702546 23.578526 -0.687114 -10.835232 1.825815 -1.191299 0.000000 -50.073000 7.140431 -0.771420 4.185215 2.977772 14.975895 -29.954925 2.727107 -0.382944 10.751086 1.070028 6.618979 8.032730 1.284700 -0.000000 -34.630500
4.526486 16.939493 -5.378788 -178.308164 27.653056 -169.116741 -11.616505 3.281301 1.589215 -10.258093 -9.017279 7.097384 -1.473856 1.868550 25.746644 -0.663248 -11.768851 3.701517 -1.660400 0.000000 -52.613800 7.127521 -0.855563 4.175749 3.445532 14.776676 -29.463071 2.755378 -0.393378 11.040850 1.037390 6.403685 7.525821 1.179100 -0.000000 -33.728500
4.612999 16.967210 -5.487259 -178.087825 27.124510 -169.039260 -11.825095 3.397502 1.482843 -9.275954 -7.748487 5.599226 -1.246086 2.021788 28.072768 -0.610236 -12.750618 5.704584 -2.237201 0.000000 -54.358400 7.117801 -0.934134 4.170803 3.924909 14.543906 -28.928170 2.795862 -0.384202 11.198456 1.007453 6.204639 6.960299 1.074900 -0.000000 -32.776700
4.698865 16.994928 -5.593121 -177.869260 26.563406 -168.951897 -12.030587 3.496473 1.375389 -8.283475 -6.435605 3.961528 -1.008941 2.158966 30.521799 -0.524301 -13.659332 7.794404 -2.902400 -0.000000 -55.150901 7.113008 -1.006063 4.166984 4.405486 14.269501 -28.361208 2.845761 -0.357801 11.232549 0.980880 6.028204 6.375629 0.977500 -0.000000 -31.856100
4.783681 17.022287 -5.696504 -177.650680 25.969651 -168.852621 -12.229369 3.571713 1.269135 -7.307221 -5.123927 2.212317 -0.767663 2.279129 33.065041 -0.406608 -14.378830 9.925227 -3.615300 -0.000001 -55.080199 7.110339 -1.072118 4.163885 4.886735 13.960545 -27.773252 2.903098 -0.316191 11.152450 0.956769 5.865155 5.807877 0.887199 0.000000 -31.006600
4.867204 17.048869 -5.797800 -177.425461 25.344831 -168.731232 -12.421603 3.618179 1.166745 -6.356758 -3.846308 0.359716 -0.527942 2.382941 35.688468 -0.262812 -14.804487 12.018697 -4.307300 0.000000 -54.124200 7.103844 -1.134654 4.166563 5.372603 13.638523 -27.183336 2.966237 -0.260647 10.968425 0.932797 5.692814 5.285561 0.800099 0.000000 -30.225400
4.949138 17.074378 -5.896820 -177.204537 24.694036 -168.601893 -12.598963 3.632519 1.067329 -5.475059 -2.645283 -1.549856 -0.296719 2.473915 38.353217 -0.100608 -14.823536 14.002009 -4.888400 0.000000 -52.482300 7.096455 -1.192323 4.168496 5.851719 13.297061 -26.592803 3.031306 -0.195772 10.708242 0.908934 5.514536 4.822638 0.718399 0.000000 -29.577601
5.029303 17.098545 -5.993675 -176.990285 24.023024 -168.466448 -12.759601 3.613787 0.970928 -4.676196 -1.541523 -3.498484 -0.078073 2.556143 41.037908 0.072467 -14.366574 15.790194 -5.266500 -0.000000 -50.336400 7.086831 -1.245821 4.169979 6.320326 12.947619 -26.010125 3.095719 -0.124415 10.392953 0.883503 5.317914 4.424714 0.639400 -0.000000 -29.063900
5.107641 17.121205 -6.088362 -176.788245 23.338297 -168.331556 -12.900929 3.562955 0.877154 -3.975466 -0.550676 -5.464860 0.125590 2.634165 43.717955 0.250735 -13.400169 17.305101 -5.366700 -0.000000 -47.928400 7.075902 -1.294994 4.169123 6.771868 12.595957 -25.437611 3.156885 -0.049756 10.045458 0.855465 5.098207 4.086818 0.561500 -0.000000 -28.677800
